<?xml version="1.0" encoding="UTF-8"?>
<svg id="Layer_2" data-name="Layer 2" xmlns="http://www.w3.org/2000/svg" viewBox="0 0 155.36 131.66">
  <defs>
    <style>
      .cls-1 {
        fill: #981a32;
      }

      .cls-1, .cls-2 {
        stroke-width: 0px;
      }

      .cls-2 {
        fill: #60246a;
      }
    </style>
  </defs>
  <g id="Layer_1-2" data-name="Layer 1">
    <g>
      <g>
        <path class="cls-2" d="M153.26,19.18c2.52,6.72,2.29,15.98.4,23.47-1.82,7.15-4.83,13.39-8.02,18.96-13.22,23.02-33.99,38.55-54.66,53.46-1.37-1.72-2.22-3.68-3.41-5.92-.47-.87-1.1-1.89-1.71-3.01-.47-.85-1.47-2.27-1.5-3.11-.05-1.09,1.52-3.39,2.21-4.61,11.95-21.63,24.06-44.47,36.01-65.7,2.81-.17,6.3-.17,9.13,0,.57,2.04.75,4.28,1,6.52.48,4.45.9,9.09,1.4,13.64.23,2.22.07,4.53,1,6.42,2.34-.52,3.83-2.78,5.22-4.61,4.21-5.62,7.57-12.79,8.53-21.46,1.4-12.92-5.75-21.08-16.25-23.17-6.27-1.25-12.6-.4-17.95.9-10.95,2.66-19.36,6.8-27.98,11.94-3.13,1.86-6.17,3.68-9.23,5.82-.95.67-2.14,1.86-3.01,1.91-.85.05-2.06-.69-3.11-1.1-2.96-1.15-6.44-1.94-10.53-2.01-5.62-.08-10,1.45-14.14,2.41.6-1.44,2.14-2.12,3.31-3.01,8.22-6.2,17.65-11.82,27.68-16.35C89.27,5.3,101.91,1.06,117.75.32c17.8-.84,30.71,6.17,35.51,18.86Z"/>
        <path class="cls-2" d="M140.12,114.77c.33,3.76,1.02,7.56.7,10.93-.87.47-2.46.3-4.21.3-1.47,0-3.43.22-4.21-.3-.57-.37-1.34-2.26-1.81-3.21-3.39-6.75-6.39-12.89-9.93-19.56-.59-1.07-1.6-2.66-1.5-3.41.13-1.02,1.65-1.35,2.11-2.11,5.22-4.58,9.96-9.63,14.64-14.74,1.17-1.02,1.2,1.04,1.3,1.91,1,10.13,1.99,20.14,2.91,30.19Z"/>
        <path class="cls-1" d="M90.17,122.39c.48.84,1.15,1.77,1.1,2.81-.74,1.05-2.76.7-4.31.7-1.67,0-3.58.25-4.91-.1-.85-.22-2.14-1.4-3.11-2.21-10.58-8.66-21.16-17.3-31.8-25.78-3.93-3.13-7.92-6.05-11.53-9.43-.18-1.82-.17-4.3,0-6.12,8.53-2.27,15.23-6.17,20.96-11.53,2.71-2.54,5.12-5.45,7.22-9.03,1.96-3.34,4.08-7.36,3.71-12.54-.55-7.51-6.45-11.23-14.44-11.23-6.2,0-10.67,2.17-15.25,4.01-1.42.57-3.08,1.77-4.81,1,.38-1,1.44-1.67,2.31-2.31,5.82-4.25,13.74-8.58,23.07-9.13,15.26-.9,23.97,8.68,25.38,21.87,1.64,15.53-6.02,25.89-15.55,31.19,7.22,12.74,14.56,25.19,21.97,37.81Z"/>
        <path class="cls-2" d="M69.31,121.99c.94.77,1.82,1.39,2.41,2.31-6.34,2.74-13.16,4.61-20.66,5.92-7.66,1.32-16.35,1.74-24.27.3-14.43-2.61-25.08-10.98-26.38-26.78-.69-8.17,1.19-16.08,3.71-22.47,2.56-6.52,5.88-11.99,9.63-16.95,7.52-10,16.62-19.06,32.3-20.86,4.55-.52,8.61.5,11.33,2.61.6.47,2.21,1.62,2.11,2.41-.1.72-2.51,1.79-3.31,2.31-7.79,5.07-15.43,11.12-21.77,17.15-5.63,5.55-10.9,11.23-15.15,18.26-3.9,6.42-8.22,17.1-4.01,25.68,5.32,10.85,21.57,13.37,37.41,11.03,3.41-.5,7.07-1.14,10.53-2.01,1.15-.28,2.44-.89,3.31-.8.94.1,2.06,1.29,2.81,1.91Z"/>
      </g>
      <path class="cls-2" d="M148.99,116.15c.89,0,1.76.23,2.61.68.85.46,1.51,1.11,1.98,1.96.47.85.71,1.74.71,2.66s-.23,1.79-.7,2.63c-.47.84-1.12,1.5-1.96,1.96-.84.47-1.72.7-2.64.7s-1.8-.23-2.64-.7c-.84-.47-1.49-1.12-1.96-1.96-.47-.84-.7-1.72-.7-2.63s.24-1.81.71-2.66c.48-.85,1.14-1.5,1.98-1.96.85-.46,1.72-.68,2.61-.68ZM148.99,117.02c-.74,0-1.47.19-2.17.57-.7.38-1.26.93-1.65,1.64-.4.71-.6,1.45-.6,2.22s.2,1.49.59,2.19c.39.7.94,1.25,1.64,1.64.7.39,1.44.59,2.2.59s1.5-.2,2.2-.59c.7-.39,1.25-.94,1.64-1.64s.58-1.43.58-2.19-.2-1.51-.59-2.22-.95-1.25-1.65-1.64c-.71-.38-1.43-.57-2.17-.57ZM146.66,124.38v-5.7h1.96c.67,0,1.15.05,1.45.16.3.11.54.29.72.55.18.26.27.54.27.84,0,.42-.15.78-.45,1.09-.3.31-.69.48-1.18.52.2.08.36.18.48.3.23.22.51.6.84,1.13l.7,1.12h-1.12l-.51-.9c-.4-.71-.72-1.15-.96-1.33-.17-.13-.41-.2-.74-.2h-.54v2.42h-.92ZM147.58,121.17h1.12c.53,0,.9-.08,1.09-.24s.29-.37.29-.63c0-.17-.05-.32-.14-.45-.09-.13-.22-.23-.39-.3-.17-.07-.47-.1-.92-.1h-1.05v1.72Z"/>
    </g>
  </g>
</svg>